<?xml version="1.0" encoding="UTF-8"?>
<svg id="Layer_2" data-name="Layer 2" xmlns="http://www.w3.org/2000/svg" viewBox="0 0 65.37 214.12">
  <g id="Stort_to-delt_Å" data-name="Stort to-delt Å">
    <path id="Venstre_side" data-name="Venstre side" d="M42.74,94.27c-2.82-14.12-12.58-28.33-28.83-34.39,9.05-5.8,15.07-15.94,15.07-27.47C28.97,15.65,16.28,1.81,0,0v9.08c11.3,1.75,19.97,11.55,19.97,23.33S11.3,53.98,0,55.74v10.24c19.55,1.59,31.08,15.88,33.91,30.05,1.73,8.64,6.78,35.77,11.61,61.84H0v9h47.19c4.62,24.97,8.62,46.77,8.71,47.24h9.48c-.18-.99-19-101.68-22.64-119.84Z"/>
  </g>
</svg>