<?xml version="1.0" encoding="UTF-8"?>
<svg id="Layer_2" data-name="Layer 2" xmlns="http://www.w3.org/2000/svg" viewBox="0 0 65.37 214.19">
  <g id="Stort_to-delt_Å" data-name="Stort to-delt Å">
    <path id="Højre_side" data-name="Højre side" d="M65.37,157.95H19.06c4.83-26.07,9.88-53.19,11.61-61.84,2.87-14.36,14.67-28.85,34.7-30.11v-10.08c-11.68-1.41-20.76-11.38-20.76-23.43s9.08-22.02,20.76-23.43V0c-16.65,1.45-29.76,15.46-29.76,32.49,0,11.53,6.02,21.67,15.07,27.47-16.25,6.06-26.01,20.27-28.83,34.39C18.21,112.5.18,213.09,0,214.09l8.69.1c.09-.47,4.09-22.27,8.71-47.24h47.98v-9Z"/>
  </g>
</svg>