<?xml version="1.0" encoding="UTF-8"?>
<svg xmlns="http://www.w3.org/2000/svg" viewBox="0 0 581.1 242.8">
  <defs>
    <style>
      .cls-1 {
        font-size: 8px;
      }

      .cls-1, .cls-2, .cls-3, .cls-4, .cls-5, .cls-6 {
        font-family: Helvetica, Helvetica;
      }

      .cls-2 {
        font-size: 17px;
      }

      .cls-3 {
        font-size: 4.25px;
      }

      .cls-7 {
        fill: #fff;
      }

      .cls-8 {
        font-family: Helvetica-Bold, Helvetica;
        font-weight: 700;
      }

      .cls-4 {
        font-size: 4.75px;
      }

      .cls-6 {
        font-size: 10px;
      }

      .cls-9 {
        font-size: 6px;
      }
    </style>
  </defs>
  <g id="Stort_to-delt_Å" data-name="Stort to-delt Å">
    <path id="Højre_side" data-name="Højre side" d="M581.1,186.55h-46.32c4.83-26.07,9.88-53.19,11.61-61.84,2.87-14.36,14.67-28.85,34.7-30.11v-10.08c-11.68-1.41-20.76-11.38-20.76-23.43s9.08-22.02,20.76-23.43v-9.05c-16.65,1.45-29.76,15.46-29.76,32.49,0,11.53,6.02,21.67,15.07,27.47-16.25,6.06-26.01,20.27-28.83,34.39-3.63,18.16-21.66,118.74-21.85,119.74l8.69.1c.09-.47,4.09-22.27,8.71-47.24h47.98v-9Z"/>
    <path id="Venstre_side" data-name="Venstre side" d="M42.74,122.94c-2.82-14.12-12.58-28.33-28.83-34.39,9.05-5.8,15.07-15.94,15.07-27.47,0-16.75-12.7-30.59-28.97-32.41v9.08c11.3,1.75,19.97,11.55,19.97,23.33S11.3,82.66,0,84.41v10.24c19.55,1.59,31.08,15.88,33.91,30.05,1.73,8.64,6.78,35.77,11.61,61.84H0v9h47.19c4.62,24.97,8.62,46.77,8.71,47.24h9.48c-.18-.99-19-101.68-22.64-119.84Z"/>
  </g>
  <g id="Producent_logo" data-name="Producent logo">
    <g>
      <text class="cls-3" transform="translate(368.5 158.73)"><tspan x="0" y="0">This beer is brewed at the ÅBEN</tspan><tspan x="0" y="4.5">brewery in Copenhagen, Denmark.</tspan><tspan x="0" y="9">www.aabenbryg.dk / @aabenbryg</tspan></text>
      <g>
        <path id="N" d="M362.1,155.33v10.52c0,.76-.17,1.27-.45,1.37-.3.1-.92-.22-1.65-1.16-.95-1.24-7.49-10.84-7.55-10.94l-.11-.16h-.99v13.01h.73v-12.09c1.21,1.74,6.47,9.49,7.34,10.62.74.96,1.47,1.46,2.1,1.46.12,0,.25-.02.36-.06.43-.15.95-.62.95-2.06v-10.52h-.73Z"/>
        <polygon id="E" points="338.62 161 345.88 161 345.88 160.27 338.62 160.27 338.62 155.96 347.17 155.96 347.17 155.23 337.88 155.23 337.88 167.97 347.21 167.97 347.21 167.24 338.62 167.24 338.62 161"/>
        <path id="B" d="M330.08,160.37c.93-.52,1.44-1.42,1.44-2.61,0-1.12-.54-1.78-.99-2.15-.51-.41-1.19-.65-1.83-.65h-6.57v13.01h6.14c3.93,0,4.51-2.5,4.51-3.98,0-2.17-1.04-3.13-2.7-3.62ZM328.7,155.7c.81,0,2.09.56,2.09,2.06,0,.91-.37,2.04-2.12,2.31l-5.81.04v-4.41h5.84ZM328.27,167.24h-5.41v-6.4l5.81-.04c2.53.42,3.38,1.23,3.38,3.19,0,2.16-1.27,3.25-3.78,3.25Z"/>
        <path id="_Å" data-name="Å" d="M313.13,155.38c.74-.47,1.23-1.3,1.23-2.24,0-1.46-1.19-2.66-2.66-2.66s-2.66,1.19-2.66,2.66c0,.94.49,1.76,1.23,2.24-1.32.49-2.12,1.65-2.35,2.8-.3,1.48-1.76,9.67-1.78,9.75h.71s.33-1.81.71-3.84h8.28c.38,2.03.7,3.81.71,3.85h.77c-.01-.08-1.55-8.28-1.84-9.76-.23-1.15-1.02-2.31-2.35-2.8ZM309.77,153.14c0-1.06.86-1.92,1.92-1.92s1.92.86,1.92,1.92-.86,1.92-1.92,1.92-1.92-.86-1.92-1.92ZM307.69,163.36c.39-2.12.8-4.33.95-5.04.24-1.22,1.29-2.46,3.06-2.46s2.81,1.23,3.06,2.46c.14.7.55,2.91.95,5.04h-8.01Z"/>
      </g>
    </g>
  </g>
  <g id="Ingredienser">
    <text class="cls-9" transform="translate(306.14 97.99)"><tspan class="cls-5"><tspan x="0" y="0">Unpasteurised / Unfiltered</tspan></tspan><tspan class="cls-5" x="0" y="12">Ingredients: water, </tspan><tspan class="cls-8" x="51.03" y="12">BARLEY</tspan><tspan class="cls-5" x="75.69" y="12">, </tspan><tspan class="cls-8" x="79.03" y="12">WHEAT</tspan><tspan class="cls-5" x="101.02" y="12">, hops (Mosaic,</tspan><tspan class="cls-5"><tspan x="0" y="18">Idaho 7, Columbus, Chinook), yeast</tspan></tspan><tspan class="cls-8"><tspan x="0" y="30">BYG, KORN, BYGG, OHRA, CEBADA, ORGE, ORZO,</tspan></tspan><tspan class="cls-8"><tspan x="0" y="36">GERST, GERSTE / HVEDE, (H)VETE, VEHNÄ, TRIGO,</tspan></tspan><tspan class="cls-8"><tspan x="0" y="42">DU BLÉ, GRANO, TARWE, WEIZEN</tspan></tspan></text>
  </g>
  <g id="Beskrivelse">
    <text class="cls-1" transform="translate(306.14 58.59)"><tspan x="0" y="0">Cloud Gazing is a modern West Coast IPA</tspan><tspan x="0" y="8">boasting a blend of hops that express</tspan><tspan x="0" y="16">citrus fruits, evergreen forest, and an</tspan><tspan x="0" y="24">approachable bitterness</tspan></text>
    <text class="cls-6" transform="translate(306.14 35.41)"><tspan x="0" y="0">West Coast IPA</tspan><tspan x="0" y="10">44 cl / Alc. 6.2% vol.</tspan></text>
    <text class="cls-2" transform="translate(306.14 20.27)"><tspan x="0" y="0">Cloud Gazing</tspan></text>
  </g>
  <g id="Holdbarhed">
    <text class="cls-4" transform="translate(274.23 178.52) rotate(-90)"><tspan x="0" y="0">Best before: See bottom / Keep cold and enjoy fresh</tspan></text>
  </g>
  <g id="Stregkode">
    <g>
      <rect class="cls-7" x="177.67" y="93.21" width="106.71" height="70.87" transform="translate(102.38 359.67) rotate(-90)"/>
      <rect x="195.59" y="170.82" width="66.08" height="1.02"/>
      <rect x="195.59" y="168.78" width="66.08" height="1.02"/>
      <rect x="195.59" y="164.72" width="60.99" height="3.05"/>
      <rect x="195.59" y="161.67" width="60.99" height="2.03"/>
      <rect x="195.59" y="158.62" width="60.99" height="2.03"/>
      <rect x="195.59" y="154.56" width="60.99" height="2.03"/>
      <rect x="195.59" y="149.48" width="60.99" height="3.05"/>
      <rect x="195.59" y="147.44" width="60.99" height="1.02"/>
      <rect x="195.59" y="142.36" width="60.99" height="4.07"/>
      <rect x="195.59" y="140.33" width="60.99" height="1.02"/>
      <rect x="195.59" y="137.28" width="60.99" height="2.03"/>
      <rect x="195.59" y="133.22" width="60.99" height="1.02"/>
      <rect x="195.59" y="129.15" width="60.99" height="3.05"/>
      <rect x="195.59" y="126.1" width="60.99" height="1.02"/>
      <rect x="195.59" y="124.07" width="66.08" height="1.02"/>
      <rect x="195.59" y="122.04" width="66.08" height="1.02"/>
      <rect x="195.59" y="117.97" width="60.99" height="3.05"/>
      <rect x="195.59" y="114.92" width="60.99" height="1.02"/>
      <rect x="195.59" y="112.89" width="60.99" height="1.02"/>
      <rect x="195.59" y="107.81" width="60.99" height="3.05"/>
      <rect x="195.59" y="105.78" width="60.99" height="1.02"/>
      <rect x="195.59" y="100.7" width="60.99" height="1.02"/>
      <rect x="195.59" y="98.66" width="60.99" height="1.02"/>
      <rect x="195.59" y="94.6" width="60.99" height="3.05"/>
      <rect x="195.59" y="91.55" width="60.99" height="1.02"/>
      <rect x="195.59" y="87.48" width="60.99" height="3.05"/>
      <rect x="195.59" y="84.44" width="60.99" height="1.02"/>
      <rect x="195.59" y="81.39" width="60.99" height="1.02"/>
      <rect x="195.59" y="77.32" width="66.08" height="1.02"/>
      <rect x="195.59" y="75.29" width="66.08" height="1.02"/>
      <path d="M259.96,177.07v-.22c0-1.37.59-2.6,2.13-2.6,2.25,0,2.46,2.61,2.46,3.43v.31h-.86v-.54c0-1.07-.35-2.26-1.61-2.26-1.18,0-1.3,1.13-1.26,1.67l.08,1.13-3.09-.2v-3.36h.86v2.53l1.29.11Z"/>
      <path d="M258.67,165.6h-.86v-4.38h.11c.39,0,.68,0,1.03.17.28.14.7.48.95.69,1.14.97,1.94,1.63,3.5,1.63h1.07v.94h-1.07c-1.47,0-2.62-.68-3.72-1.61l-.38-.33c-.18-.16-.38-.34-.62-.37v3.26Z"/>
      <path d="M260.34,158.66h-1.17l-1.35-1.62v-1.02h6.66v.94h-5.6l1.46,1.69Z"/>
      <path d="M262.15,148.14h.86v.81h1.46v.94h-1.46v2.53h-.99l-4.21-1.96v-.97l4.34,2.01v-1.61h-1.37v-.94h1.37v-.81Z"/>
      <path d="M258.75,141.82l1.67,1.67c.05-1.14.8-1.94,1.98-1.94,1.48,0,2.16,1.24,2.16,2.57,0,.61-.16,1.16-.39,1.72h-.94c.34-.52.48-1.1.48-1.7,0-.84-.37-1.65-1.33-1.65-.89,0-1.23.7-1.23,1.5v.73h-.72l-1.75-1.71v2.83h-.86v-4.03h.93Z"/>
      <path d="M259.96,138.06v-.22c0-1.37.59-2.6,2.13-2.6,2.25,0,2.46,2.61,2.46,3.43v.31h-.86v-.54c0-1.07-.35-2.26-1.61-2.26-1.18,0-1.3,1.13-1.26,1.67l.08,1.13-3.09-.2v-3.36h.86v2.53l1.29.11Z"/>
      <path d="M259.96,131.48v-.22c0-1.37.59-2.6,2.13-2.6,2.25,0,2.46,2.61,2.46,3.43v.31h-.86v-.54c0-1.07-.35-2.26-1.61-2.26-1.18,0-1.3,1.13-1.26,1.67l.08,1.13-3.09-.2v-3.36h.86v2.53l1.29.11Z"/>
      <path d="M258.7,114.26c.72-.25,1.57-.29,2.33-.29.81,0,2.53.05,3.12.66.33.33.4,1.04.4,1.56s-.07,1.24-.4,1.57c-.59.6-2.31.65-3.12.65-.76,0-1.61-.05-2.33-.29-.91-.31-1.01-1.03-1.01-1.93s.1-1.62,1.01-1.93ZM259.29,117.37c.5.09,1.33.1,1.85.1.49,0,1.97-.02,2.32-.28.24-.17.25-.69.25-1s0-.82-.25-1c-.35-.26-1.83-.28-2.32-.28-.52,0-1.34.02-1.85.1-.7.12-.73.45-.73,1.18s.03,1.06.73,1.18Z"/>
      <path d="M259.96,110.56v-.22c0-1.37.59-2.6,2.13-2.6,2.25,0,2.46,2.61,2.46,3.43v.31h-.86v-.54c0-1.07-.35-2.26-1.61-2.26-1.18,0-1.3,1.13-1.26,1.67l.08,1.13-3.09-.2v-3.36h.86v2.53l1.29.11Z"/>
      <path d="M258.75,101.15l1.67,1.67c.05-1.14.8-1.94,1.98-1.94,1.48,0,2.16,1.24,2.16,2.57,0,.61-.16,1.16-.39,1.72h-.94c.34-.52.48-1.1.48-1.7,0-.84-.37-1.65-1.33-1.65-.89,0-1.23.7-1.23,1.5v.73h-.72l-1.75-1.71v2.83h-.86v-4.03h.93Z"/>
      <path d="M262.15,94.3h.86v.81h1.46v.94h-1.46v2.53h-.99l-4.21-1.96v-.97l4.34,2.01v-1.61h-1.37v-.94h1.37v-.81Z"/>
      <path d="M262.15,87.71h.86v.81h1.46v.94h-1.46v2.53h-.99l-4.21-1.96v-.97l4.34,2.01v-1.61h-1.37v-.94h1.37v-.81Z"/>
      <path d="M259.17,81.3c.77,0,1.21.56,1.58,1.14.4-.83.97-1.4,1.96-1.4,1.35,0,1.85,1.02,1.85,2.22s-.49,2.22-1.85,2.22c-.99,0-1.56-.57-1.96-1.39-.38.58-.81,1.13-1.58,1.13-1.06,0-1.47-1.03-1.47-1.97s.41-1.97,1.47-1.97ZM262.63,81.99c-.72,0-1.05.63-1.41,1.28.36.66.69,1.28,1.41,1.28.76,0,1.07-.65,1.07-1.28s-.31-1.28-1.07-1.28ZM259.25,84.29c.52,0,.88-.61,1.04-1.03-.16-.41-.52-1.02-1.04-1.02-.56,0-.7.58-.7,1.02s.14,1.03.7,1.03Z"/>
      <path d="M261.27,68.14l3.37,5.18h-1.33l-2.2-3.58-2.2,3.58h-1.31l3.38-5.18h.29Z"/>
    </g>
  </g>
  <g id="Pantmærke">
    <g>
      <g>
        <path class="cls-7" d="M244.34,38.37h-5.73c6.47-3.64,10.78-10.12,10.78-17.51,0-11.38-10.22-20.61-22.82-20.61s-22.82,9.23-22.82,20.61c0,7.39,4.31,13.87,10.78,17.51h-6.31c-5.13,0-9.28,4.16-9.28,9.28s4.16,9.28,9.28,9.28h36.12c5.13,0,9.28-4.16,9.28-9.28s-4.16-9.28-9.28-9.28Z"/>
        <path d="M244.34,57.19h-36.12c-5.26,0-9.53-4.28-9.53-9.53s4.28-9.53,9.53-9.53h5.39c-6.35-3.9-10.11-10.29-10.11-17.26,0-11.5,10.35-20.86,23.07-20.86s23.07,9.36,23.07,20.86c0,6.98-3.76,13.37-10.11,17.26h4.81c5.26,0,9.53,4.28,9.53,9.53s-4.28,9.53-9.53,9.53ZM208.22,38.62c-4.98,0-9.03,4.05-9.03,9.03s4.05,9.03,9.03,9.03h36.12c4.98,0,9.03-4.05,9.03-9.03s-4.05-9.03-9.03-9.03h-6.69l.83-.47c6.67-3.75,10.65-10.21,10.65-17.29,0-11.23-10.12-20.36-22.57-20.36s-22.57,9.13-22.57,20.36c0,7.08,3.98,13.54,10.65,17.29l.83.47h-7.26Z"/>
      </g>
      <circle cx="208.22" cy="47.66" r="3.4"/>
      <circle cx="217.25" cy="47.66" r="3.4"/>
      <circle cx="226.28" cy="47.66" r="3.4"/>
      <circle cx="235.31" cy="47.66" r="3.4"/>
      <circle cx="244.34" cy="47.66" r="3.4"/>
      <path d="M237.62,11.76c-.68-.5-1.63-.35-2.13.33-.5.68-.35,1.63.33,2.13,3,2.2,3.98,4.43,3.26,7.43-.77,3.21-3.89,5.9-7.32,6.51l.37-2.92c.16-1.23-1.11-2.15-2.23-1.61l-9.04,4.35c-1.31.63-1.33,2.48-.04,3.14l7.59,3.89c1.13.58,2.48-.14,2.65-1.39l.3-2.31c4.99-.48,9.57-4.23,10.69-8.94,1.01-4.21-.44-7.68-4.43-10.6Z"/>
      <path d="M215.15,29.68c.68.5,1.63.35,2.13-.33.5-.68.35-1.63-.33-2.13-3-2.2-3.98-4.43-3.26-7.43.77-3.21,3.89-5.9,7.32-6.51l-.37,2.92c-.16,1.23,1.11,2.15,2.23,1.61l9.04-4.35c1.31-.63,1.33-2.48.04-3.14l-7.59-3.89c-1.13-.58-2.48.14-2.65,1.39l-.3,2.31c-4.99.48-9.57,4.23-10.69,8.94-1.01,4.21.44,7.68,4.43,10.6Z"/>
      <g>
        <path d="M219.39,22.79l-.85.2v1.3c0,.19-.04.34-.13.45s-.2.19-.33.22-.25.01-.34-.06c-.09-.08-.13-.2-.13-.39v-3.54c0-.2.05-.36.14-.47s.24-.19.45-.24l1.19-.28c.35-.08.62-.12.81-.11.19,0,.35.06.49.15.14.09.24.21.31.37.07.16.11.35.11.57,0,.47-.14.86-.43,1.16-.29.31-.72.53-1.29.66ZM219.16,20.73l-.63.15v1.4l.63-.15c.22-.05.4-.12.55-.2.15-.08.26-.18.34-.3.08-.12.12-.27.12-.44,0-.2-.06-.35-.18-.45-.13-.1-.41-.11-.82-.01Z"/>
        <path d="M223.42,23.23c-.21.21-.41.38-.6.5-.19.13-.41.22-.65.27-.22.05-.41.05-.58,0s-.29-.14-.38-.26c-.09-.13-.13-.28-.13-.45,0-.23.07-.45.22-.65.15-.2.35-.36.61-.47.05-.03.19-.08.4-.18.22-.09.4-.18.55-.25.15-.07.32-.16.5-.25-.01-.22-.06-.38-.14-.46-.08-.09-.25-.1-.5-.04-.22.05-.38.12-.49.2-.11.09-.2.2-.28.34-.08.14-.13.23-.17.28-.03.05-.1.08-.21.11-.1.02-.18.01-.25-.03-.07-.05-.1-.12-.1-.21,0-.15.05-.31.16-.48.11-.17.27-.32.5-.47.23-.14.51-.26.84-.33.38-.09.67-.11.89-.07.22.04.37.14.46.32.09.17.13.42.13.73,0,.2,0,.37,0,.51,0,.14,0,.3,0,.47,0,.16.03.32.08.48.05.16.08.27.08.32,0,.09-.04.18-.12.27-.08.09-.18.15-.28.17-.09.02-.17,0-.26-.06-.09-.06-.18-.16-.27-.3ZM223.36,22.01c-.13.08-.31.17-.55.27-.24.11-.4.18-.5.23-.09.05-.18.11-.26.2-.08.09-.13.2-.13.32s.05.23.15.3c.1.07.23.08.39.05.17-.04.33-.11.47-.22.14-.11.25-.23.31-.36.08-.15.12-.37.12-.67v-.12Z"/>
        <path d="M225.53,20.22v.1c.15-.23.31-.42.49-.55.18-.13.38-.23.62-.28s.43-.05.6,0c.18.06.31.16.4.32.06.09.09.2.11.31.02.12.03.27.03.46v1.59c0,.17-.04.31-.12.42-.08.11-.18.17-.31.2s-.23,0-.31-.06c-.08-.07-.12-.19-.12-.36v-1.43c0-.28-.04-.49-.12-.62-.08-.13-.23-.17-.47-.12-.15.04-.29.11-.42.23-.13.12-.22.27-.28.44-.04.14-.06.38-.06.73v1.07c0,.17-.04.31-.12.42-.08.11-.18.17-.31.2s-.22,0-.3-.06c-.08-.07-.12-.19-.12-.36v-2.47c0-.16.04-.29.11-.39.07-.1.17-.16.29-.19.08-.02.14-.02.2,0,.06.02.11.06.15.13.04.06.05.14.05.25Z"/>
        <path d="M228.35,19.16l.09-.02v-.51c0-.14,0-.25.01-.33,0-.08.03-.15.06-.22.03-.07.08-.12.14-.18.06-.05.13-.09.21-.1.11-.03.21,0,.29.05.06.04.1.1.11.17.02.07.02.18.02.33v.58l.31-.07c.12-.03.21-.02.28.02.06.04.1.11.1.2,0,.11-.05.21-.14.27-.09.07-.22.12-.39.16l-.16.04v1.57c0,.13,0,.24.01.31,0,.07.03.12.08.16.04.04.11.04.2.02.05-.01.12-.04.2-.07.09-.04.15-.06.2-.07.07-.02.13,0,.19.04.06.04.08.1.08.19,0,.14-.08.26-.23.37s-.37.19-.65.26c-.27.06-.47.06-.61,0-.14-.06-.23-.16-.27-.31-.04-.15-.06-.36-.06-.62v-1.64l-.11.03c-.12.03-.22.02-.28-.02-.06-.04-.1-.11-.1-.2s.03-.17.1-.24c.07-.07.17-.12.3-.16Z"/>
        <path d="M234.53,20.53l-.22-.53-1.87.43-.22.64c-.09.25-.16.42-.22.52-.06.09-.16.16-.3.19-.12.03-.22,0-.31-.06-.09-.06-.13-.15-.13-.26,0-.06.01-.13.03-.2.02-.07.06-.17.1-.3l1.17-3.26c.03-.09.07-.21.12-.34.05-.13.1-.24.15-.33.05-.09.12-.17.21-.24.09-.07.19-.12.32-.15s.24-.03.32,0c.09.03.16.08.21.14.05.06.1.14.13.22.04.08.08.19.14.32l1.2,2.68c.09.2.14.36.14.46s-.04.21-.13.32c-.09.11-.2.18-.32.21-.07.02-.14.02-.19,0-.05-.01-.1-.04-.13-.08-.04-.04-.07-.1-.11-.18-.04-.08-.08-.16-.1-.22ZM232.69,19.68l1.37-.32-.69-1.73-.68,2.05Z"/>
      </g>
    </g>
  </g>
</svg>